<?xml version="1.0" encoding="iso-8859-1"?>
<!-- Generator: Adobe Illustrator 19.0.0, SVG Export Plug-In . SVG Version: 6.00 Build 0)  -->
<svg version="1.1" id="Capa_1" xmlns="http://www.w3.org/2000/svg" xmlns:xlink="http://www.w3.org/1999/xlink" x="0px" y="0px"
	 viewBox="0 0 511.999 511.999" style="enable-background:new 0 0 511.999 511.999;" xml:space="preserve">
<g>
	<path style="fill:#FFFFFF;" d="M475.733,123.391l-3.328,2.56L276.65,224.17c-12.656,6.347-20.648,19.292-20.651,33.451v56.235
		l3.755,7.509L256,323.242L59.733,225.108L32,211.199v-70.315c0.003-14.159,7.994-27.104,20.651-33.451L256.768,5.716
		l202.667,101.717c6.043,3.047,11.146,7.677,14.763,13.397C474.771,121.645,475.285,122.501,475.733,123.391z"/>
	<path style="fill:#FEDD0A;" d="M475.733,123.391l-3.328,2.56L276.65,224.17c-12.656,6.347-20.648,19.292-20.651,33.451v56.235
		l3.755,7.509L256,323.242L59.733,225.108v-64.341c0.003-14.159,7.994-27.104,20.651-33.451L284.501,25.599l189.696,95.232
		C474.771,121.645,475.285,122.501,475.733,123.391z"/>
	<path style="fill:#FFA800;" d="M480,140.77v70.4L259.754,321.335L256,313.826v-56.235c0.003-14.159,7.994-27.104,20.651-33.451
		l195.755-98.219l3.328-2.56C478.531,128.738,479.995,134.709,480,140.77z"/>
	<polygon style="fill:#FFFFFF;" points="87.978,414.122 87.978,416.596 32,388.607 32,211.199 59.733,225.108 59.733,399.956 	"/>
	<polygon style="fill:#FEDD0A;" points="256,323.242 256,500.65 200.021,472.66 200.021,360.532 115.712,318.378 87.978,304.554 
		87.978,414.122 59.733,399.956 59.733,225.108 	"/>
	<g>
		<polygon style="fill:#FFA800;" points="480,211.173 480,388.581 424.021,416.571 424.021,304.528 367.957,332.517 
			311.978,360.507 311.978,472.635 256,500.624 256,323.216 259.754,321.339 		"/>
		<polygon style="fill:#FFA800;" points="147.797,334.395 144.042,341.904 144.042,388.581 87.978,416.571 87.978,304.528 		"/>
	</g>
	<g>
		<polygon style="fill:#FEDD0A;" points="424.021,304.528 424.021,416.571 367.957,388.581 367.957,332.517 		"/>
		<path style="fill:#FEDD0A;" d="M228,220.47L78.666,145.763"/>
	</g>
	<g>
		<path d="M256,334.574c-1.325,0-2.632-0.308-3.817-0.9l-224-112.067c-2.89-1.446-4.716-4.401-4.717-7.633v-70.258
			c-0.065-17.418,9.795-33.353,25.412-41.067L252.97,0.899c2.405-1.201,5.235-1.198,7.637,0.009l202.629,101.725
			c15.55,7.74,25.357,23.638,25.296,41.008v70.333c0,3.232-1.826,6.187-4.717,7.633l-224,112.067
			C258.631,334.266,257.325,334.574,256,334.574z M40.533,208.699L256,316.499l215.467-107.8V143.64
			c0.039-10.909-6.118-20.895-15.883-25.758h-0.004L256.766,18.074L56.491,117.916c-9.808,4.848-16,14.859-15.958,25.8V208.699z"/>
		<path d="M256,511.999c-1.325,0-2.632-0.308-3.817-0.9l-55.979-27.992c-2.891-1.446-4.716-4.401-4.717-7.633v-106.85
			l-94.975-47.458v98.25c0,2.958-1.531,5.704-4.047,7.259c-2.516,1.555-5.657,1.697-8.303,0.374l-55.979-27.992
			c-2.89-1.446-4.716-4.401-4.717-7.633v-75.692c0-4.713,3.821-8.533,8.533-8.533s8.533,3.821,8.533,8.533v70.417l38.913,19.458
			v-98.242c0-2.957,1.53-5.703,4.045-7.258c2.515-1.555,5.656-1.697,8.301-0.375l112.042,55.983c2.893,1.444,4.721,4.4,4.721,7.633
			v106.85L256,493.924l47.446-23.725v-106.85c0-3.233,1.828-6.189,4.721-7.633l112.042-55.983c2.645-1.322,5.786-1.18,8.301,0.375
			c2.515,1.555,4.046,4.301,4.045,7.258v98.242l38.913-19.458V214.016c0-4.713,3.82-8.533,8.533-8.533s8.533,3.821,8.533,8.533
			v177.408c0,3.232-1.826,6.187-4.717,7.633l-55.979,27.992c-2.645,1.322-5.787,1.181-8.303-0.374
			c-2.516-1.555-4.047-4.302-4.047-7.259v-98.25l-94.975,47.458v106.85c0,3.232-1.826,6.187-4.717,7.633l-55.979,27.992
			C258.631,511.691,257.325,511.999,256,511.999L256,511.999z"/>
		<path d="M32,255.999c-2.263,0.001-4.434-0.898-6.035-2.499c-1.6-1.6-2.499-3.771-2.499-6.035v-42.833
			c0-4.713,3.821-8.533,8.533-8.533s8.533,3.82,8.533,8.533v42.833c0.001,2.263-0.898,4.434-2.499,6.035
			C36.434,255.101,34.263,255.999,32,255.999z"/>
		<path d="M88.008,427.957c-3.96,0.005-7.403-2.715-8.315-6.569c-0.912-3.854,0.947-7.828,4.49-9.598l51.283-25.658v-41.417
			c0-4.713,3.821-8.533,8.533-8.533c4.713,0,8.533,3.821,8.533,8.533v46.692c0,3.232-1.826,6.187-4.717,7.633l-56,28.017
			C90.634,427.648,89.33,427.956,88.008,427.957L88.008,427.957z"/>
		<path d="M423.991,427.957c-1.322-0.001-2.626-0.309-3.808-0.9l-56-28.017c-2.891-1.446-4.716-4.401-4.717-7.633v-56.033
			c0-4.713,3.821-8.533,8.533-8.533s8.533,3.82,8.533,8.533v50.758l51.283,25.658c3.542,1.77,5.401,5.745,4.49,9.598
			C431.394,425.242,427.951,427.962,423.991,427.957L423.991,427.957z"/>
		<path d="M256,507.732c-1.132,0.001-2.217-0.449-3.018-1.249c-0.8-0.8-1.25-1.886-1.249-3.018V326.04
			c0-2.356,1.91-4.267,4.267-4.267c2.356,0,4.267,1.91,4.267,4.267v177.425c0.001,1.132-0.449,2.217-1.249,3.018
			S257.132,507.733,256,507.732L256,507.732z"/>
		<path d="M227.996,227.582c-0.661,0.001-1.313-0.153-1.904-0.45L76.758,152.424c-1.367-0.68-2.267-2.038-2.36-3.562
			c-0.093-1.524,0.636-2.982,1.911-3.822c1.275-0.84,2.902-0.935,4.266-0.249l149.333,74.708c1.771,0.885,2.701,2.872,2.245,4.799
			C231.697,226.225,229.976,227.585,227.996,227.582L227.996,227.582z"/>
		<path d="M256,320.966c-1.132,0.001-2.217-0.449-3.018-1.249c-0.8-0.8-1.25-1.886-1.249-3.018v-56.292
			c-0.056-15.777,8.862-30.213,22.996-37.225l195.775-98.233c2.106-1.044,4.66-0.19,5.713,1.912s0.209,4.659-1.888,5.721
			L278.55,230.816c-11.239,5.57-18.33,17.048-18.283,29.592v56.292c0.001,1.132-0.449,2.217-1.249,3.018
			S257.132,320.966,256,320.966z"/>
		<path d="M32,290.132c-1.116-0.013-2.219-0.245-3.246-0.683c-1.033-0.432-1.984-1.038-2.813-1.791
			c-2.441-2.443-3.152-6.124-1.796-9.3c0.413-1.045,1.023-2.002,1.796-2.817c2.042-2.013,4.952-2.879,7.763-2.308
			c0.535,0.096,1.053,0.27,1.538,0.517c0.525,0.167,1.016,0.427,1.45,0.767c0.49,0.294,0.948,0.638,1.367,1.025
			c0.771,0.817,1.379,1.773,1.792,2.817c1.124,2.624,0.847,5.638-0.737,8.014C37.53,288.746,34.854,290.161,32,290.132L32,290.132z"
			/>
	</g>
</g>
<g>
</g>
<g>
</g>
<g>
</g>
<g>
</g>
<g>
</g>
<g>
</g>
<g>
</g>
<g>
</g>
<g>
</g>
<g>
</g>
<g>
</g>
<g>
</g>
<g>
</g>
<g>
</g>
<g>
</g>
</svg>
