<svg width="111" height="25" viewBox="0 0 111 25" fill="none" xmlns="http://www.w3.org/2000/svg">
<g clip-path="url(#clip0)">
<path d="M0 19.3872L2.05725 20.4121V15.2367C2.05762 15.1603 2.07744 15.0853 2.11483 15.0187C2.15222 14.952 2.20596 14.896 2.27101 14.8557C2.33606 14.8155 2.41029 14.7924 2.48674 14.7887C2.56318 14.7849 2.63933 14.8006 2.70804 14.8342L8.62431 17.7855C8.69912 17.8231 8.76206 17.8805 8.8062 17.9515C8.85033 18.0226 8.87394 18.1044 8.87441 18.1879V23.8222L11.1522 24.9517V16.6103L0 11.0458V19.3872Z" fill="#413F3C"/>
<path d="M12.365 10.8044L22.4737 5.74426C22.3302 5.53817 22.1381 5.37048 21.9144 5.25596L11.4076 0L0.844369 5.25864C0.589874 5.38349 0.375724 5.57727 0.226401 5.81781C0.0770776 6.05836 -0.00139405 6.33597 -4.39019e-05 6.61891V10.0397L11.1521 15.6069V12.7656C11.1503 12.3583 11.263 11.9586 11.4773 11.6119C11.6917 11.2652 11.9992 10.9855 12.365 10.8044ZM10.1006 10.9117C10.0813 10.9485 10.0523 10.9793 10.0168 11.0011C9.98132 11.0228 9.9406 11.0345 9.89895 11.0351C9.86166 11.0322 9.82565 11.0202 9.79408 11.0002L1.91199 7.0777C1.87703 7.05951 1.84732 7.0327 1.82567 6.99983C1.80402 6.96696 1.79115 6.92912 1.78828 6.88989C1.78581 6.85031 1.79399 6.81079 1.81195 6.77541C1.82992 6.74004 1.85702 6.71009 1.89047 6.68866C1.92287 6.66623 1.96083 6.65312 2.00019 6.65076C2.03956 6.64839 2.07881 6.65686 2.11368 6.67525L9.99846 10.6085C10.0519 10.6356 10.0926 10.6825 10.1118 10.7392C10.1309 10.7959 10.1269 10.8579 10.1006 10.9117Z" fill="#413F3C"/>
<path d="M2.95813 20.4121L5.01269 19.3872V17.206C5.01308 17.139 5.02871 17.0729 5.05841 17.0128L2.95813 15.9637V20.4121Z" fill="#413F3C"/>
<path d="M22.6755 6.14398L12.5667 11.2068C12.2755 11.3502 12.0305 11.5723 11.8598 11.848C11.6891 12.1236 11.5995 12.4416 11.6013 12.7656V15.6069L22.7508 10.0397V6.6135C22.7512 6.45397 22.7257 6.29542 22.6755 6.14398Z" fill="#413F3C"/>
<path d="M11.6013 24.9517L13.8817 23.8141V18.1799C13.8822 18.0963 13.9058 18.0145 13.9499 17.9435C13.9941 17.8725 14.057 17.815 14.1318 17.7774L20.0481 14.8262C20.1168 14.7925 20.1929 14.7768 20.2694 14.7806C20.3458 14.7844 20.4201 14.8075 20.4851 14.8477C20.5502 14.8879 20.6039 14.944 20.6413 15.0106C20.6787 15.0772 20.6985 15.1522 20.6989 15.2286V20.4041L22.7534 19.3792V11.0458L11.6013 16.6103V24.9517Z" fill="#413F3C"/>
<path d="M17.738 19.3872L19.7953 20.4121V15.9637L17.738 16.9913V19.3872Z" fill="#413F3C"/>
<path d="M39.0635 0.904167C39.4852 0.903126 39.9066 0.930016 40.3248 0.984657C40.7719 1.05263 41.2096 1.17238 41.629 1.34149C42.0686 1.50937 42.4767 1.74971 42.8365 2.05248C43.2044 2.39206 43.4919 2.80906 43.6782 3.27324C43.9168 3.8402 44.0341 4.45066 44.0224 5.06547C44.0172 5.82035 43.8732 6.56786 43.5975 7.27088C43.3139 8.00641 42.9044 8.68726 42.3874 9.28311C41.8315 9.9113 41.1487 10.4151 40.3839 10.7614C39.5462 11.1498 38.6319 11.346 37.7081 11.3356C37.349 11.3395 36.992 11.2796 36.654 11.1585C36.395 11.0759 36.1561 10.9407 35.9521 10.7614C35.9333 10.7427 35.9252 10.6783 35.9252 10.5683C35.9267 10.4317 35.955 10.2968 36.0086 10.1712C36.0623 10.0343 36.1188 9.96727 36.1726 9.96727C36.3104 9.97322 36.4477 9.98666 36.5841 10.0075C36.739 10.0305 36.8953 10.044 37.052 10.0478C38.0936 10.0478 38.8708 9.55499 39.3835 8.56944C39.8963 7.58389 40.1526 6.32468 40.1526 4.79181C40.1632 4.20796 40.0055 3.63338 39.6982 3.13641C39.5637 2.90575 39.3686 2.71612 39.134 2.58798C38.8994 2.45984 38.6342 2.39806 38.367 2.40932C37.381 2.40932 36.8503 2.58282 36.775 2.92982L34.4165 15.1696C34.2975 15.7758 34.2149 16.3886 34.1691 17.0047C34.1668 17.135 34.1939 17.2641 34.2484 17.3825C34.3028 17.501 34.3833 17.6057 34.4838 17.6889C34.7074 17.8784 34.9775 18.0052 35.2663 18.0564C35.507 18.11 35.7502 18.1512 35.9951 18.1799C36.1451 18.1977 36.2959 18.2075 36.4469 18.2094C36.5195 18.2094 36.5303 18.3543 36.4738 18.6467C36.4509 18.8167 36.4048 18.9828 36.3366 19.1404C33.9791 19.0116 32.6166 18.9472 32.249 18.9472C31.7892 18.9472 31.055 18.9794 30.0385 19.0438C29.022 19.1082 28.4707 19.1404 28.3793 19.1404C28.3398 18.9972 28.3297 18.8475 28.3497 18.7004C28.4062 18.373 28.4599 18.2094 28.5164 18.2094C29.4119 18.2094 29.9713 17.9813 30.1891 17.5252C30.3684 17.1764 30.5701 16.4458 30.7942 15.3332L32.8783 4.70863C33.0207 4.06171 33.0947 3.40166 33.0988 2.73933C33.0988 2.47103 32.9213 2.26712 32.561 2.09541C32.3207 1.95476 32.0546 1.86353 31.7784 1.82711C31.7408 1.82711 31.7246 1.7815 31.7246 1.69028C31.7296 1.53168 31.7567 1.37454 31.8053 1.22344C31.8325 1.1075 31.8789 0.996879 31.9425 0.896118C33.8644 0.987339 35.0297 1.03295 35.4385 1.03295C35.953 1.03295 36.5616 1.0097 37.2644 0.963193C37.9672 0.916688 38.5669 0.897012 39.0635 0.904167Z" fill="#413F3C"/>
<path d="M50.5626 6.737C51.97 6.737 52.9946 7.14302 53.6364 7.95507C54.2782 8.76712 54.5982 9.84031 54.5964 11.1746C54.5986 12.5155 54.298 13.8397 53.7171 15.0489C53.1703 16.2316 52.3389 17.2612 51.2968 18.0458C50.3498 18.7849 49.1833 19.1889 47.981 19.1941C46.5467 19.1941 45.5176 18.788 44.8937 17.976C44.2699 17.1639 43.9543 16.0908 43.9471 14.7564C43.9567 13.4708 44.2525 12.2034 44.8131 11.0459C45.366 9.84365 46.1951 8.78841 47.2334 7.9658C48.1664 7.18292 49.3435 6.74846 50.5626 6.737ZM50.2937 8.18581C49.7558 8.18581 49.2637 8.6124 48.7958 9.46022C48.2894 10.4294 47.9271 11.467 47.7201 12.5403C47.4701 13.6858 47.351 14.8559 47.3651 16.0282C47.3992 17.18 47.7004 17.7551 48.2687 17.7533C48.837 17.7515 49.3587 17.2909 49.8338 16.3716C50.3342 15.377 50.6901 14.3164 50.8907 13.2218C51.1098 12.1455 51.2152 11.0494 51.2053 9.95121C51.1569 8.7707 50.853 8.18581 50.2883 8.18581H50.2937Z" fill="#413F3C"/>
<path d="M59.6737 6.73698C59.8653 6.73045 60.0564 6.76221 60.2356 6.8304C60.4148 6.89859 60.5785 7.00183 60.7171 7.13406C60.8621 7.28902 60.9735 7.47218 61.0443 7.67209C61.1151 7.87199 61.1438 8.08432 61.1285 8.29579C61.1092 8.97846 61.0191 9.6573 60.8596 10.3214L60.2276 13.5813C60.2079 13.6528 60.1757 13.8084 60.1308 14.0481C60.0851 14.2842 60.0448 14.5069 60.0071 14.7162C59.9786 14.8659 59.9606 15.0174 59.9533 15.1696C59.9328 15.4631 59.9942 15.7566 60.1308 16.0174C60.2017 16.1119 60.296 16.1864 60.4044 16.2334C60.5129 16.2805 60.6318 16.2985 60.7494 16.2857C61.2065 16.2857 61.8053 15.5103 62.5458 13.9596C63.2045 12.6472 63.6977 11.2585 64.0141 9.82509L64.5896 6.94894C65.0923 6.8237 65.6099 6.76862 66.1278 6.78527C66.6703 6.77503 67.212 6.82998 67.7413 6.94894L66.0955 15.5345C66.0556 15.7413 66.0367 15.9517 66.039 16.1623C66.039 16.6023 66.1305 16.8196 66.308 16.8196C66.5769 16.8196 66.9265 16.6291 67.3836 16.2455C67.7208 15.9876 68.0283 15.6934 68.3007 15.3681C68.3571 15.3681 68.4566 15.4593 68.6046 15.6364C68.7094 15.7432 68.7845 15.8755 68.8224 16.0201C68.6216 16.5138 67.9681 17.1756 66.8619 18.0055C65.7558 18.8354 64.8181 19.2504 64.049 19.2504C63.6671 19.2589 63.2972 19.1173 63.0191 18.856C62.87 18.7027 62.7551 18.5198 62.6819 18.3191C62.6087 18.1184 62.5788 17.9046 62.5942 17.6916C62.6284 17.1035 62.7011 16.5182 62.812 15.9396C62.8129 15.8982 62.8174 15.8569 62.8254 15.8162C62.8254 15.7706 62.8496 15.6928 62.8685 15.5828C62.8873 15.4728 62.9034 15.3547 62.9222 15.2259C62.4348 16.2229 61.8123 17.1483 61.0721 17.976C60.3029 18.8345 59.6172 19.2629 59.0148 19.2611C58.208 19.2611 57.6128 18.9785 57.2292 18.4133C56.8248 17.7721 56.6242 17.0239 56.6537 16.2669C56.7311 15.2813 56.8776 14.3023 57.092 13.3371L57.6433 10.4636C57.6885 10.2567 57.7066 10.0447 57.6971 9.83314C57.6971 9.39313 57.6057 9.17581 57.4282 9.17581C57.1727 9.17581 56.8097 9.3663 56.3525 9.74997C56.014 10.0072 55.7055 10.3015 55.4328 10.6273C55.3951 10.6273 55.2983 10.5361 55.145 10.359C55.0331 10.255 54.9522 10.1223 54.9111 9.97534C55.1137 9.48167 55.768 8.81987 56.8742 7.98993C57.9804 7.16 58.9135 6.74235 59.6737 6.73698Z" fill="#413F3C"/>
<path d="M80.0929 -2.98853e-05C81.2618 -2.98853e-05 82.1125 0.301357 82.6449 0.904133C82.6449 2.72856 82.1071 3.64077 81.0314 3.64077C80.9037 3.64078 80.7777 3.61122 80.6634 3.55442C80.5491 3.49762 80.4495 3.41514 80.3726 3.31345C80.1902 3.09444 80.0507 2.84326 79.9611 2.57295C79.8739 2.30781 79.744 2.05861 79.5765 1.83513C79.5107 1.73473 79.421 1.65209 79.3154 1.59452C79.2099 1.53696 79.0917 1.50625 78.9715 1.50512C78.3879 1.50512 77.8232 2.02562 77.2853 3.06661C76.6619 4.35954 76.2229 5.73313 75.9811 7.14743V7.17426C75.9811 7.2467 76.0079 7.28426 76.0644 7.28426H79.2189C79.3982 7.28426 79.4878 7.42109 79.4878 7.69475C79.4681 8.12307 79.3355 8.53862 79.1032 8.89941H75.8116C75.7202 8.89941 75.6557 8.95307 75.618 9.06307L74.0045 17.3803C73.7731 18.6779 73.3403 19.9317 72.7217 21.0962C72.2543 22.0117 71.6046 22.8223 70.8124 23.4787C70.1971 23.9723 69.5073 24.3653 68.7686 24.6431C68.1395 24.8734 67.4755 24.9941 66.8054 25C66.2287 25.0169 65.6559 24.8993 65.1328 24.6565C64.6756 24.4285 64.4094 24.187 64.326 23.9321C64.326 22.3438 64.8378 21.5497 65.8615 21.5497C65.985 21.5471 66.1074 21.5729 66.2193 21.625C66.3312 21.6771 66.4296 21.7541 66.5069 21.8502C66.6795 22.0476 66.8144 22.275 66.9049 22.5209C66.9967 22.7663 67.1315 22.9934 67.303 23.1916C67.3767 23.285 67.4706 23.3605 67.5777 23.4125C67.6848 23.4646 67.8023 23.4918 67.9215 23.4921C68.5812 23.4921 69.102 23.0772 69.4839 22.2472C69.9337 21.1981 70.2569 20.0993 70.4467 18.974L72.4205 9.0899V9.03624C72.4205 8.94502 72.3856 8.89941 72.313 8.89941H70.6994C70.608 8.89941 70.5623 8.80998 70.5623 8.63111C70.5623 8.45225 70.7317 8.17322 71.0705 7.79403C71.1998 7.63643 71.3606 7.50736 71.5425 7.41499C71.7244 7.32262 71.9236 7.26897 72.1274 7.25743H72.5953C72.7056 7.25743 72.7863 7.11255 72.8401 6.8201C73.2434 4.74169 74.104 3.08539 75.4217 1.85122C76.673 0.643566 78.352 -0.0218337 80.0929 -2.98853e-05Z" fill="#413F3C"/>
<path d="M94.7249 0.767334C96.6467 0.77876 98.5581 1.04951 100.407 1.57223C100.407 1.78955 100.367 2.48981 100.283 3.66495C100.2 4.8401 100.152 5.49743 100.133 5.62353C100.11 5.69156 100.072 5.75373 100.022 5.80565C99.9728 5.85756 99.9122 5.89797 99.8452 5.92402C99.6952 5.9968 99.5305 6.03442 99.3638 6.03402C99.234 6.01573 99.1055 5.98884 98.9792 5.95353C98.9591 5.68152 98.9131 5.41202 98.8421 5.14864C98.7453 4.81781 98.6071 4.50049 98.4306 4.20423C98.2322 3.85043 97.9717 3.53509 97.6615 3.27324C97.2814 2.96986 96.8496 2.73721 96.3868 2.58639C95.799 2.38774 95.1814 2.29065 94.5609 2.29932C93.3509 2.31434 92.1962 2.80736 91.3499 3.67032C90.3125 4.68973 89.5359 5.94301 89.0856 7.32454C88.5356 8.91378 88.2627 10.5853 88.2789 12.2666C88.2789 13.9086 88.6222 15.2322 89.3088 16.2374C89.9955 17.2426 91.0156 17.7443 92.3691 17.7425C93.1364 17.7443 93.9011 17.6542 94.6469 17.4742C95.2704 17.3445 95.8652 17.1037 96.403 16.7633C96.7461 16.5094 97.0435 16.1991 97.2823 15.8457C97.5101 15.5264 97.7158 15.192 97.8982 14.8449C97.9575 14.6983 98.0362 14.5603 98.1321 14.4344C98.6081 14.4344 98.8717 14.5552 98.9389 14.7913C98.8824 15.0462 98.7238 15.5962 98.4575 16.4011C98.1913 17.2059 97.9869 17.6969 97.8417 17.8257C96.7983 18.7576 94.9158 19.2227 92.1943 19.2209C89.7992 19.2209 87.8871 18.5322 86.4583 17.155C85.7555 16.4829 85.2011 15.6719 84.8307 14.7737C84.4602 13.8756 84.2818 12.9102 84.3069 11.9393C84.3088 10.4372 84.6315 8.95272 85.2535 7.58479C85.8342 6.25651 86.6598 5.04881 87.6872 4.02447C88.6688 3.05845 89.8049 2.26233 91.0487 1.66882C92.1903 1.0955 93.447 0.787315 94.7249 0.767334Z" fill="#413F3C"/>
<path d="M106.966 6.737C108.375 6.737 109.4 7.14302 110.04 7.95507C110.68 8.76712 111 9.84031 111 11.1746C111.002 12.5152 110.702 13.8391 110.123 15.0489C109.577 16.2316 108.745 17.2612 107.703 18.0458C106.755 18.7863 105.586 19.1912 104.382 19.1968C102.948 19.1968 101.919 18.7907 101.295 17.9787C100.671 17.1666 100.355 16.0934 100.348 14.7591C100.363 13.4726 100.663 12.2054 101.227 11.0485C101.781 9.84685 102.61 8.79181 103.648 7.96849C104.578 7.18735 105.751 6.75214 106.966 6.737ZM106.697 8.18581C106.159 8.18581 105.667 8.6124 105.202 9.46022C104.695 10.4289 104.332 11.4667 104.126 12.5403C103.874 13.6855 103.754 14.8557 103.769 16.0282C103.806 17.18 104.108 17.7551 104.675 17.7533C105.241 17.7515 105.763 17.2909 106.24 16.3716C106.738 15.3764 107.093 14.316 107.294 13.2218C107.513 12.1454 107.619 11.0494 107.612 9.95121C107.565 8.77427 107.258 8.18581 106.692 8.18581H106.697Z" fill="#413F3C"/>
</g>
<defs>
<clipPath id="clip0">
<rect width="111" height="25" fill="white"/>
</clipPath>
</defs>
</svg>
